<svg 
          width="16.990455627441406" 
          height="17.45046043395996" fill="none" 
          xmlns="http://www.w3.org/2000/svg">
          <path d="M 15.366977782776207 9.20023039896954 L 15.366977782776207 8.243979891426916 L 16.56697776310392 7.193980210664175 C 16.788180682985985 6.999011483096695 16.93333991285629 6.732121773590705 16.976800204089844 6.440480283363666 C 17.0202604953234 6.148838793136627 16.959223195800885 5.851222458321706 16.8044772252522 5.600229960806297 L 15.329478118667073 3.100230053890599 C 15.219876452080223 2.910394106222909 15.062280830190907 2.7527177727742775 14.87250125375322 2.643018581569271 C 14.682721677315534 2.5333193903642646 14.467430718299486 2.47545469241267 14.248227273367085 2.475229853644238 C 14.112383573743424 2.4741891467841235 13.977278990299942 2.4952993911111263 13.84822767728879 2.5377299481746864 L 12.329477571801373 3.0502300974755396 C 12.067265112620234 2.875984695875923 11.793744032458676 2.7193884545585174 11.510727951543803 2.581480059049487 L 11.1919778263841 1.0064797928472566 C 11.134824933403893 0.718732814549742 10.978286078524064 0.4602550347446691 10.749762646966749 0.276293646841806 C 10.521239215409434 0.0923322589389429 10.235292579166412 -0.005391367490975095 9.941978492593014 0.00022964433874090437 L 7.016979062084824 0.00022964433874090437 C 6.723664975511425 -0.005391367490975095 6.437718339268406 0.0923322589389429 6.2091949077110895 0.276293646841806 C 5.980671476153773 0.4602550347446691 5.824132025227531 0.718732814549742 5.766979132247323 1.0064797928472566 L 5.448229007087621 2.581480059049487 C 5.163187206554406 2.71935509458116 4.887584899952174 2.875947442969885 4.623229244129723 3.0502300974755396 L 3.13572895807432 2.5127299699671566 C 3.0052896764816737 2.4787446979252583 2.8702121665839164 2.466081059133573 2.735729063972818 2.475229853644238 C 2.5165256190404177 2.47545469241267 2.3012354050823873 2.5333193903642646 2.1114558286447 2.643018581569271 C 1.9216762522070125 2.7527177727742775 1.7640806303176964 2.910394106222909 1.6544789637308477 3.100230053890599 L 0.17947916796705357 5.600229960806297 C 0.03359599781706779 5.850847954857302 -0.020613583044742475 6.1443903304943115 0.02613490533537414 6.430582335240875 C 0.07288339371549075 6.716774339987439 0.21768116101673388 6.97780915926299 0.4357290768427654 7.168980232456645 L 1.6169790015985075 8.250230034990421 L 1.6169790015985075 9.206480542533047 L 0.4357290768427654 10.256480819342283 C 0.21152206440619095 10.448980051768473 0.06276375028983065 10.71468634820834 0.01585325370034033 11.00644678696436 C -0.03105724288915 11.29820722572038 0.026914028802807327 11.597152185429163 0.17947916796705357 11.850230473153664 L 1.6544789637308477 14.350230678092611 C 1.7640806303176964 14.540066625760302 1.9216762522070125 14.697743257232181 2.1114558286447 14.807442448437188 C 2.3012354050823873 14.917141639642194 2.5165256190404177 14.975005890558915 2.735729063972818 14.975230729327347 C 2.871572763596479 14.976271436187462 3.006677645063168 14.955161042848834 3.13572895807432 14.912730485785275 L 4.654478765538529 14.40023063450767 C 4.916691224719669 14.574476036107287 5.1902129009276425 14.73107227742469 5.473228981842515 14.868980672933722 L 5.791979107002216 16.443981088147577 C 5.849131999982424 16.731728066445093 6.005671450908668 16.990205268830124 6.234194882465983 17.174166656732986 C 6.462718314023299 17.358128044635848 6.748664950266319 17.455851371841984 7.0419790368397175 17.450230360012267 L 9.991978442102802 17.450230360012267 C 10.2852925286762 17.455851371841984 10.57123916491922 17.358128044635848 10.799762596476535 17.174166656732986 C 11.02828602803385 16.990205268830124 11.18482488291368 16.731728066445093 11.241977775893888 16.443981088147577 L 11.560727901053589 14.868980672933722 C 11.845769701586804 14.731105637402049 12.121372008189038 14.574513289013325 12.385727664011489 14.40023063450767 L 13.898227626798578 14.912730485785275 C 14.02727893980973 14.955161042848834 14.16238471534604 14.976271436187462 14.298228414969701 14.975230729327347 C 14.517431859902102 14.975005890558915 14.732721626825322 14.917141639642194 14.922501203263009 14.807442448437188 C 15.112280779700695 14.697743257232181 15.269876401590011 14.540066625760302 15.37947806817686 14.350230678092611 L 16.8044772252522 11.850230473153664 C 16.950360395402186 11.59961247910266 17.00457057463872 11.30607010346565 16.957822086258602 11.019878098719087 C 16.911073597878485 10.733686093972523 16.76627525082897 10.47265127469697 16.548227335002938 10.281480201503316 L 15.366977782776207 9.20023039896954 Z M 14.248227273367085 13.725230626857874 L 12.104478395053746 13.000230662793019 C 11.602643822057859 13.425298241621636 11.029100879361547 13.757571699982247 10.410727870235663 13.981480552496677 L 9.966979063394321 16.22523083179682 L 7.016979062084824 16.22523083179682 L 6.573229063150655 14.006481126750703 C 5.9597426287936885 13.776217226489361 5.389302331201202 13.444515972765503 4.885728681032897 13.025230044954052 L 2.735729063972818 13.725230626857874 L 1.2607289143064653 11.225230421918928 L 2.960729134790066 9.725230537374157 C 2.8451647036936087 9.078267364832145 2.8451647036936087 8.415943478025865 2.960729134790066 7.768980305483852 L 1.2607289143064653 6.225230012041034 L 2.735729063972818 3.725230105125336 L 4.879479134378984 4.450230069190191 C 5.381313707374873 4.0251624903615735 5.95485605402477 3.6928890320009633 6.573229063150655 3.468980179486533 L 7.016979062084824 1.2252297511747647 L 9.966979063394321 1.2252297511747647 L 10.410727870235663 3.4439802012790035 C 11.024214304592629 3.674244101540345 11.594654602185116 4.005944163171211 12.09822825235342 4.425230090982661 L 14.248227273367085 3.725230105125336 L 15.723227572045042 6.225230012041034 L 14.023228096619459 7.7252298965858035 C 14.138792527715916 8.372193069127816 14.138792527715916 9.034517551980594 14.023228096619459 9.681480724522606 L 15.723227572045042 11.225230421918928 L 14.248227273367085 13.725230626857874 Z" fill="rgb(25.000000409781933,25.000000409781933,25.000000409781933)"/>
        </svg>